<mxfile host="Electron" modified="2024-03-26T21:24:16.930Z" agent="Mozilla/5.0 (Windows NT 10.0; Win64; x64) AppleWebKit/537.36 (KHTML, like Gecko) draw.io/23.1.5 Chrome/120.0.6099.109 Electron/28.1.0 Safari/537.36" etag="WS_iAHEh_BbdeykX1Wey" version="23.1.5" type="device">
  <diagram name="Page-1" id="xLjHKsNrHLuWE1qr0acg">
    <mxGraphModel dx="1050" dy="621" grid="1" gridSize="10" guides="1" tooltips="1" connect="1" arrows="1" fold="1" page="1" pageScale="1" pageWidth="827" pageHeight="1169" math="0" shadow="0">
      <root>
        <mxCell id="0" />
        <mxCell id="1" parent="0" />
        <mxCell id="mU2m3KYlCyOI-BAkA-Vx-3" style="edgeStyle=orthogonalEdgeStyle;rounded=0;orthogonalLoop=1;jettySize=auto;html=1;exitX=1;exitY=0.5;exitDx=0;exitDy=0;" parent="1" source="1GfBvhKG0i2IyNcOBK6o-1" edge="1">
          <mxGeometry relative="1" as="geometry">
            <mxPoint x="530" y="240" as="targetPoint" />
          </mxGeometry>
        </mxCell>
        <mxCell id="1GfBvhKG0i2IyNcOBK6o-1" value="Tổng hợp doanh thu&lt;br&gt;bán vé máy bay&lt;br&gt;theo năm" style="ellipse;whiteSpace=wrap;html=1;" parent="1" vertex="1">
          <mxGeometry x="320" y="200" width="200" height="80" as="geometry" />
        </mxCell>
        <mxCell id="1GfBvhKG0i2IyNcOBK6o-2" value="Người quản lý" style="rounded=0;whiteSpace=wrap;html=1;" parent="1" vertex="1">
          <mxGeometry x="360" y="80" width="120" height="40" as="geometry" />
        </mxCell>
        <mxCell id="1GfBvhKG0i2IyNcOBK6o-3" value="Tb nhập" style="rounded=0;whiteSpace=wrap;html=1;" parent="1" vertex="1">
          <mxGeometry x="120" y="220" width="120" height="40" as="geometry" />
        </mxCell>
        <mxCell id="1GfBvhKG0i2IyNcOBK6o-4" value="Tb xuất" style="rounded=0;whiteSpace=wrap;html=1;" parent="1" vertex="1">
          <mxGeometry x="610" y="220" width="120" height="40" as="geometry" />
        </mxCell>
        <mxCell id="1GfBvhKG0i2IyNcOBK6o-8" value="" style="shape=flexArrow;endArrow=classic;html=1;rounded=0;exitX=0.25;exitY=1;exitDx=0;exitDy=0;fillColor=#000000;strokeColor=#FFFFFF;" parent="1" source="1GfBvhKG0i2IyNcOBK6o-2" edge="1">
          <mxGeometry width="50" height="50" relative="1" as="geometry">
            <mxPoint x="400" y="350" as="sourcePoint" />
            <mxPoint x="390" y="200" as="targetPoint" />
          </mxGeometry>
        </mxCell>
        <mxCell id="1GfBvhKG0i2IyNcOBK6o-9" value="" style="shape=flexArrow;endArrow=classic;html=1;rounded=0;exitX=0.652;exitY=0.008;exitDx=0;exitDy=0;exitPerimeter=0;entryX=0.75;entryY=1;entryDx=0;entryDy=0;fillColor=#000000;strokeColor=#FFFFFF;" parent="1" source="1GfBvhKG0i2IyNcOBK6o-1" target="1GfBvhKG0i2IyNcOBK6o-2" edge="1">
          <mxGeometry width="50" height="50" relative="1" as="geometry">
            <mxPoint x="410" y="280" as="sourcePoint" />
            <mxPoint x="410" y="150" as="targetPoint" />
          </mxGeometry>
        </mxCell>
        <mxCell id="1GfBvhKG0i2IyNcOBK6o-10" value="" style="shape=flexArrow;endArrow=classic;html=1;rounded=0;exitX=1;exitY=0.5;exitDx=0;exitDy=0;" parent="1" source="1GfBvhKG0i2IyNcOBK6o-3" target="1GfBvhKG0i2IyNcOBK6o-1" edge="1">
          <mxGeometry width="50" height="50" relative="1" as="geometry">
            <mxPoint x="410" y="280" as="sourcePoint" />
            <mxPoint x="460" y="230" as="targetPoint" />
          </mxGeometry>
        </mxCell>
        <mxCell id="1GfBvhKG0i2IyNcOBK6o-11" value="" style="shape=flexArrow;endArrow=classic;html=1;rounded=0;fillColor=#000000;strokeColor=#FFFFFF;" parent="1" source="1GfBvhKG0i2IyNcOBK6o-1" edge="1">
          <mxGeometry width="50" height="50" relative="1" as="geometry">
            <mxPoint x="410" y="280" as="sourcePoint" />
            <mxPoint x="610" y="240" as="targetPoint" />
          </mxGeometry>
        </mxCell>
        <mxCell id="1GfBvhKG0i2IyNcOBK6o-12" value="" style="shape=flexArrow;endArrow=classic;html=1;rounded=0;exitX=0.644;exitY=0.997;exitDx=0;exitDy=0;exitPerimeter=0;fillColor=#000000;strokeColor=#FFFFFF;" parent="1" edge="1">
          <mxGeometry width="50" height="50" relative="1" as="geometry">
            <mxPoint x="448.79999999999995" y="280" as="sourcePoint" />
            <mxPoint x="450" y="360.24" as="targetPoint" />
            <Array as="points">
              <mxPoint x="450" y="320.24" />
              <mxPoint x="450" y="330.24" />
            </Array>
          </mxGeometry>
        </mxCell>
        <mxCell id="1GfBvhKG0i2IyNcOBK6o-13" value="" style="shape=flexArrow;endArrow=classic;html=1;rounded=0;entryX=0.39;entryY=0.967;entryDx=0;entryDy=0;entryPerimeter=0;fillColor=#000000;strokeColor=#FFFFFF;" parent="1" target="1GfBvhKG0i2IyNcOBK6o-1" edge="1">
          <mxGeometry width="50" height="50" relative="1" as="geometry">
            <mxPoint x="398" y="360" as="sourcePoint" />
            <mxPoint x="350" y="310" as="targetPoint" />
          </mxGeometry>
        </mxCell>
        <mxCell id="1GfBvhKG0i2IyNcOBK6o-14" value="D1" style="text;html=1;align=center;verticalAlign=middle;whiteSpace=wrap;rounded=0;" parent="1" vertex="1">
          <mxGeometry x="320" y="140" width="60" height="30" as="geometry" />
        </mxCell>
        <mxCell id="1GfBvhKG0i2IyNcOBK6o-15" value="D6" style="text;html=1;align=center;verticalAlign=middle;whiteSpace=wrap;rounded=0;" parent="1" vertex="1">
          <mxGeometry x="465" y="140" width="60" height="30" as="geometry" />
        </mxCell>
        <mxCell id="1GfBvhKG0i2IyNcOBK6o-16" value="D2" style="text;html=1;align=center;verticalAlign=middle;whiteSpace=wrap;rounded=0;" parent="1" vertex="1">
          <mxGeometry x="250" y="190" width="60" height="30" as="geometry" />
        </mxCell>
        <mxCell id="1GfBvhKG0i2IyNcOBK6o-17" value="D3" style="text;html=1;align=center;verticalAlign=middle;whiteSpace=wrap;rounded=0;" parent="1" vertex="1">
          <mxGeometry x="330" y="310" width="60" height="30" as="geometry" />
        </mxCell>
        <mxCell id="1GfBvhKG0i2IyNcOBK6o-18" value="D4" style="text;html=1;align=center;verticalAlign=middle;whiteSpace=wrap;rounded=0;" parent="1" vertex="1">
          <mxGeometry x="465" y="310" width="60" height="30" as="geometry" />
        </mxCell>
        <mxCell id="1GfBvhKG0i2IyNcOBK6o-19" value="D5" style="text;html=1;align=center;verticalAlign=middle;whiteSpace=wrap;rounded=0;" parent="1" vertex="1">
          <mxGeometry x="540" y="200" width="60" height="30" as="geometry" />
        </mxCell>
        <mxCell id="mU2m3KYlCyOI-BAkA-Vx-38" value="D1: Năm" style="text;html=1;align=left;verticalAlign=middle;resizable=0;points=[];autosize=1;strokeColor=none;fillColor=none;" parent="1" vertex="1">
          <mxGeometry x="77.5" y="520" width="70" height="30" as="geometry" />
        </mxCell>
        <mxCell id="mU2m3KYlCyOI-BAkA-Vx-39" value="D2: Không có" style="text;html=1;align=left;verticalAlign=middle;resizable=0;points=[];autosize=1;strokeColor=none;fillColor=none;" parent="1" vertex="1">
          <mxGeometry x="77.5" y="561" width="100" height="30" as="geometry" />
        </mxCell>
        <mxCell id="mU2m3KYlCyOI-BAkA-Vx-40" value="D3: Danh sách các vé đã bán trong năm (D1)&amp;nbsp;" style="text;html=1;align=left;verticalAlign=middle;resizable=0;points=[];autosize=1;strokeColor=none;fillColor=none;" parent="1" vertex="1">
          <mxGeometry x="77.5" y="600" width="270" height="30" as="geometry" />
        </mxCell>
        <mxCell id="mU2m3KYlCyOI-BAkA-Vx-41" value="D4: D1 + thông tin thống kê theo từng tháng của năm, số chuyến bay của của tháng đó, doanh thu, tỉ lệ&amp;nbsp;" style="text;html=1;align=left;verticalAlign=middle;resizable=0;points=[];autosize=1;strokeColor=none;fillColor=none;" parent="1" vertex="1">
          <mxGeometry x="80" y="642" width="580" height="30" as="geometry" />
        </mxCell>
        <mxCell id="mU2m3KYlCyOI-BAkA-Vx-42" value="D5: D4" style="text;html=1;align=left;verticalAlign=middle;resizable=0;points=[];autosize=1;strokeColor=none;fillColor=none;" parent="1" vertex="1">
          <mxGeometry x="77.5" y="680" width="60" height="30" as="geometry" />
        </mxCell>
        <mxCell id="mU2m3KYlCyOI-BAkA-Vx-43" value="D6:D5" style="text;html=1;align=left;verticalAlign=middle;resizable=0;points=[];autosize=1;strokeColor=none;fillColor=none;" parent="1" vertex="1">
          <mxGeometry x="77.5" y="720" width="60" height="30" as="geometry" />
        </mxCell>
        <mxCell id="mU2m3KYlCyOI-BAkA-Vx-44" value="&lt;b&gt;&lt;u&gt;Mô tả các luồng dữ liệu&lt;/u&gt;&lt;/b&gt;" style="text;html=1;align=center;verticalAlign=middle;resizable=0;points=[];autosize=1;strokeColor=#6F0000;fillColor=#a20025;fontColor=#ffffff;" parent="1" vertex="1">
          <mxGeometry x="47.5" y="480" width="160" height="30" as="geometry" />
        </mxCell>
        <mxCell id="mU2m3KYlCyOI-BAkA-Vx-45" value="&lt;b&gt;&lt;u&gt;Thuật toán&lt;/u&gt;&lt;/b&gt;" style="text;html=1;align=center;verticalAlign=middle;resizable=0;points=[];autosize=1;strokeColor=#6F0000;fillColor=#a20025;fontColor=#ffffff;" parent="1" vertex="1">
          <mxGeometry x="47.5" y="762" width="80" height="30" as="geometry" />
        </mxCell>
        <mxCell id="mU2m3KYlCyOI-BAkA-Vx-46" value="B1: Nhận D1 từ người dùng" style="text;html=1;align=left;verticalAlign=middle;resizable=0;points=[];autosize=1;strokeColor=none;fillColor=none;" parent="1" vertex="1">
          <mxGeometry x="77.5" y="810" width="170" height="30" as="geometry" />
        </mxCell>
        <mxCell id="mU2m3KYlCyOI-BAkA-Vx-47" value="B2: kết nối với cơ sở dữ liệu" style="text;html=1;align=left;verticalAlign=middle;resizable=0;points=[];autosize=1;strokeColor=none;fillColor=none;" parent="1" vertex="1">
          <mxGeometry x="77.5" y="850" width="170" height="30" as="geometry" />
        </mxCell>
        <mxCell id="mU2m3KYlCyOI-BAkA-Vx-48" value="B3: Đọc D3 từ bộ nhớ phụ" style="text;html=1;align=left;verticalAlign=middle;resizable=0;points=[];autosize=1;strokeColor=none;fillColor=none;" parent="1" vertex="1">
          <mxGeometry x="80" y="892" width="160" height="30" as="geometry" />
        </mxCell>
        <mxCell id="mU2m3KYlCyOI-BAkA-Vx-49" value="B4: Đếm số chuyến bay theo từng Tháng từ danh sách các vé đã bán (D3) trong năm (D1)" style="text;html=1;align=left;verticalAlign=middle;resizable=0;points=[];autosize=1;strokeColor=none;fillColor=none;" parent="1" vertex="1">
          <mxGeometry x="77.5" y="930" width="500" height="30" as="geometry" />
        </mxCell>
        <mxCell id="mU2m3KYlCyOI-BAkA-Vx-50" value="B5: Tính tổng doanh thu của của tổng tất cả các chuyến bay trong tháng đó theo danh sách các vé đã bán trong năm D1" style="text;html=1;align=left;verticalAlign=middle;resizable=0;points=[];autosize=1;strokeColor=none;fillColor=none;" parent="1" vertex="1">
          <mxGeometry x="77.5" y="970" width="660" height="30" as="geometry" />
        </mxCell>
        <mxCell id="mU2m3KYlCyOI-BAkA-Vx-51" value="B6: Tính tỉ lệ doanh thu bán vé các chuyến bay dựa vào số doanh thu tháng&lt;br&gt;&lt;span style=&quot;white-space: pre;&quot;&gt;&#x9;&lt;/span&gt;so với&amp;nbsp;tổng doanh thu của tất cả các tháng của tất cả các chuyến bay trong năm&amp;nbsp;" style="text;html=1;align=left;verticalAlign=middle;resizable=0;points=[];autosize=1;strokeColor=none;fillColor=none;" parent="1" vertex="1">
          <mxGeometry x="80" y="1007" width="480" height="40" as="geometry" />
        </mxCell>
        <mxCell id="mU2m3KYlCyOI-BAkA-Vx-52" value="B7: lưu D4 xuống bộ nhớ phụ" style="text;html=1;align=left;verticalAlign=middle;resizable=0;points=[];autosize=1;strokeColor=none;fillColor=none;" parent="1" vertex="1">
          <mxGeometry x="80" y="1052" width="180" height="30" as="geometry" />
        </mxCell>
        <mxCell id="mU2m3KYlCyOI-BAkA-Vx-53" value="B8: Xuất D5 ra máy xuất" style="text;html=1;align=left;verticalAlign=middle;resizable=0;points=[];autosize=1;strokeColor=none;fillColor=none;" parent="1" vertex="1">
          <mxGeometry x="80" y="1090" width="150" height="30" as="geometry" />
        </mxCell>
        <mxCell id="mU2m3KYlCyOI-BAkA-Vx-54" value="B9: Trả D6 cho người dùng" style="text;html=1;align=left;verticalAlign=middle;resizable=0;points=[];autosize=1;strokeColor=none;fillColor=none;" parent="1" vertex="1">
          <mxGeometry x="80" y="1132" width="170" height="30" as="geometry" />
        </mxCell>
        <mxCell id="mU2m3KYlCyOI-BAkA-Vx-55" value="B10: Đóng kết nối cơ sở dữ liệu" style="text;html=1;align=left;verticalAlign=middle;resizable=0;points=[];autosize=1;strokeColor=none;fillColor=none;" parent="1" vertex="1">
          <mxGeometry x="77.5" y="1170" width="190" height="30" as="geometry" />
        </mxCell>
        <mxCell id="mU2m3KYlCyOI-BAkA-Vx-56" value="" style="endArrow=none;html=1;rounded=0;" parent="1" edge="1">
          <mxGeometry width="50" height="50" relative="1" as="geometry">
            <mxPoint x="360" y="360" as="sourcePoint" />
            <mxPoint x="480" y="360" as="targetPoint" />
          </mxGeometry>
        </mxCell>
        <mxCell id="mU2m3KYlCyOI-BAkA-Vx-57" value="" style="endArrow=none;html=1;rounded=0;" parent="1" edge="1">
          <mxGeometry width="50" height="50" relative="1" as="geometry">
            <mxPoint x="360" y="400" as="sourcePoint" />
            <mxPoint x="480" y="400" as="targetPoint" />
          </mxGeometry>
        </mxCell>
        <mxCell id="mU2m3KYlCyOI-BAkA-Vx-58" value="Bộ nhớ phụ" style="text;html=1;align=center;verticalAlign=middle;resizable=0;points=[];autosize=1;strokeColor=none;fillColor=none;" parent="1" vertex="1">
          <mxGeometry x="375" y="370" width="90" height="30" as="geometry" />
        </mxCell>
        <mxCell id="mU2m3KYlCyOI-BAkA-Vx-59" value="B11: Kết thúc" style="text;html=1;align=left;verticalAlign=middle;resizable=0;points=[];autosize=1;strokeColor=none;fillColor=none;" parent="1" vertex="1">
          <mxGeometry x="77.5" y="1200" width="90" height="30" as="geometry" />
        </mxCell>
      </root>
    </mxGraphModel>
  </diagram>
</mxfile>
